<svg xmlns="http://www.w3.org/2000/svg" viewBox="0 0 448 512">
  <path fill="#E4405F" d="M224.1 141c-63.6 0-114.9 51.3-114.9 114.9s51.3 114.9 114.9 114.9 114.9-51.3 114.9-114.9S287.7 141 224.1 141zm0 190.6c-41.1 0-74.6-33.5-74.6-74.6s33.5-74.6 74.6-74.6 74.6 33.5 74.6 74.6-33.5 74.6-74.6 74.6zm146.4-194.3c0 14.9-12 26.9-26.9 26.9h-19.1c-14.9 0-26.9-12-26.9-26.9v-19.1c0-14.9 12-26.9 26.9-26.9h19.1c14.9 0 26.9 12 26.9 26.9v19.1zM398.8 80c-1.7-35.3-9.9-66.7-36.3-93.1S307 0 271.7 1.7C236.4 3.3 148.1 3.3 112.8 1.7 76.5 0 45.1 8.2 18.7 34.6S-1.3 109.5-3 145.8C-4.6 181.1-4.6 269.4-3 304.7c1.7 35.3 9.9 66.7 36.3 93.1s57.8 34.6 93.1 36.3c35.3 1.7 123.6 1.7 159 0 35.3-1.7 66.7-9.9 93.1-36.3s34.6-57.8 36.3-93.1c1.7-35.3 1.7-123.6 0-159zM224.1 338c-61.9 0-112-50.1-112-112s50.1-112 112-112 112 50.1 112 112-50.1 112-112 112zm146.4-213.3c0 14.9-12 26.9-26.9 26.9h-19.1c-14.9 0-26.9-12-26.9-26.9v-19.1c0-14.9 12-26.9 26.9-26.9h19.1c14.9 0 26.9 12 26.9 26.9v19.1z"/>
</svg>
